<?xml version="1.0" standalone="no"?>
<!DOCTYPE svg PUBLIC "-//W3C//DTD SVG 20010904//EN"
 "http://www.w3.org/TR/2001/REC-SVG-20010904/DTD/svg10.dtd">
<svg version="1.0" xmlns="http://www.w3.org/2000/svg"
     width="31.88" height="32" viewBox="0 0 1024.000000 1024.000000"
 preserveAspectRatio="xMidYMid meet">

<g transform="translate(0.000000,1024.000000) scale(0.100000,-0.100000)"
fill="#000000" stroke="none">
<path d="M3520 8064 c-246 -31 -414 -81 -625 -183 -234 -114 -465 -283 -623
-457 -79 -86 -214 -265 -275 -364 -67 -110 -181 -349 -222 -470 -83 -240 -144
-540 -166 -815 -12 -157 -7 -450 11 -625 57 -540 294 -1078 633 -1437 45 -47
138 -130 207 -185 69 -56 126 -102 128 -103 8 -7 -42 -265 -73 -380 -33 -118
-56 -181 -129 -350 -29 -69 -33 -120 -11 -172 44 -104 116 -149 225 -140 149
12 519 116 686 192 180 82 396 234 535 377 l67 68 1343 0 c1272 0 1351 1 1474
19 570 84 1024 343 1378 786 252 314 376 570 477 979 49 198 66 309 80 496 42
608 -48 1088 -299 1588 -105 209 -227 383 -387 551 -318 334 -683 525 -1184
618 -88 16 -211 18 -1620 19 -1236 2 -1545 -1 -1630 -12z m3165 -377 c214 -37
373 -89 545 -178 354 -183 632 -479 830 -884 107 -218 164 -409 202 -680 8
-57 13 -195 13 -375 -1 -309 -13 -436 -61 -639 -182 -772 -753 -1364 -1449
-1500 -191 -37 -349 -41 -1690 -41 -948 0 -1302 -3 -1318 -11 -12 -7 -69 -58
-127 -114 -145 -140 -299 -252 -455 -331 -119 -60 -322 -137 -336 -128 -3 2 4
34 17 73 44 135 75 283 94 453 32 281 28 305 -66 371 -270 187 -402 314 -546
527 -226 334 -341 693 -368 1147 -47 798 250 1549 775 1958 277 216 568 334
896 364 52 5 735 8 1519 7 1298 -2 1434 -4 1525 -19z"/>
<path d="M3693 7089 c-310 -26 -629 -184 -878 -433 -228 -228 -367 -481 -432
-786 -28 -132 -25 -518 5 -653 47 -211 120 -387 229 -551 119 -180 371 -409
548 -498 113 -58 274 -117 392 -144 107 -26 136 -28 303 -28 168 0 196 2 305
28 417 98 685 285 948 660 12 18 17 14 72 -60 87 -116 286 -312 380 -373 164
-107 443 -220 621 -251 91 -16 356 -8 479 14 196 36 420 132 579 249 115 84
301 276 375 387 228 341 315 799 226 1195 -75 333 -190 563 -383 766 -279 293
-622 458 -992 476 -284 13 -574 -57 -792 -193 -211 -131 -329 -244 -473 -449
-42 -60 -80 -111 -83 -112 -4 -1 -34 39 -67 90 -81 124 -287 331 -414 416
-295 196 -608 278 -948 250z m440 -403 c238 -71 489 -246 614 -428 157 -229
223 -443 223 -722 0 -365 -109 -628 -364 -881 -202 -200 -446 -295 -753 -295
-213 0 -369 43 -557 154 -448 265 -664 802 -536 1333 95 397 376 700 766 827
114 37 185 45 354 42 143 -3 177 -7 253 -30z m2521 4 c300 -78 538 -253 690
-510 134 -227 202 -517 176 -756 -23 -216 -81 -381 -192 -551 -161 -243 -386
-408 -656 -480 -87 -24 -116 -27 -282 -27 -167 -1 -193 1 -264 23 -119 35
-244 92 -343 156 -99 64 -267 228 -325 316 -127 193 -191 417 -191 669 0 225
32 360 134 565 117 239 286 405 524 516 82 38 220 83 310 99 84 15 329 4 419
-20z"/>
<path d="M3335 5962 c-106 -66 -125 -204 -41 -288 55 -55 135 -68 206 -31 123
62 132 226 17 311 -40 29 -141 34 -182 8z"/>
<path d="M4253 5961 c-131 -60 -132 -256 -1 -320 52 -25 95 -27 145 -6 48 20
71 41 94 87 34 66 17 161 -38 210 -28 25 -88 48 -125 48 -18 0 -52 -9 -75 -19z"/>
<path d="M3310 5277 c-34 -17 -70 -74 -70 -110 0 -109 207 -312 372 -365 173
-57 363 -53 521 9 117 46 278 183 326 276 52 102 2 203 -100 203 -40 0 -47 -5
-123 -84 -91 -95 -135 -125 -228 -157 -53 -18 -79 -20 -160 -17 -89 5 -105 9
-175 43 -59 29 -96 57 -153 115 -41 43 -85 82 -97 89 -28 15 -82 14 -113 -2z"/>
<path d="M6775 5965 c-51 -18 -101 -72 -115 -124 -27 -103 41 -207 144 -218
127 -15 228 97 196 217 -15 54 -69 114 -118 128 -49 15 -57 15 -107 -3z"/>
<path d="M5834 5951 c-69 -42 -101 -134 -75 -214 24 -71 120 -127 194 -113 42
8 93 41 121 79 16 22 21 43 21 91 0 74 -27 122 -86 155 -48 27 -132 28 -175 2z"/>
<path d="M5792 5274 c-49 -34 -65 -108 -37 -168 22 -46 110 -147 175 -200 73
-59 156 -99 259 -125 100 -25 162 -26 291 -6 174 26 276 74 378 177 78 79 130
152 138 193 13 71 -51 145 -126 145 -43 0 -66 -15 -150 -96 -115 -111 -235
-164 -373 -164 -111 0 -231 56 -322 151 -79 81 -122 109 -169 109 -23 0 -52
-7 -64 -16z"/>
</g>
</svg>
